HIERARCHY
ROOT root
{
	OFFSET	0	13.1	24.9
	CHANNELS 6  Xposition Yposition Zposition Xrotation Yrotation Zrotation
	JOINT spine_1
	{
		OFFSET	0	9.99999	0
		CHANNELS 3  Xrotation Yrotation Zrotation
		JOINT spine_2
		{
			OFFSET	0	112	-10
			CHANNELS 3  Xrotation Yrotation Zrotation
			JOINT spine_3
			{
				OFFSET	0	206.5	19.3
				CHANNELS 3  Xrotation Yrotation Zrotation
				JOINT spine_4
				{
					OFFSET	0	110.4	14.6
					CHANNELS 3  Xrotation Yrotation Zrotation
					JOINT neck_1
					{
						OFFSET	0	71.8	-50.3
						CHANNELS 3  Xrotation Yrotation Zrotation
						JOINT neck_2
						{
							OFFSET	0	86.2	-25.8
							CHANNELS 3  Xrotation Yrotation Zrotation
							JOINT head_ee
							{
								OFFSET	0	179.8	-8.7
								CHANNELS 3  Xrotation Yrotation Zrotation
								End Site
								{
									OFFSET	1	0	0
								}
							}
						}
					}
					JOINT left_clavicle
					{
						OFFSET	-43.2	22.4	-70.8
						CHANNELS 3  Xrotation Yrotation Zrotation
						JOINT left_shoulder
						{
							OFFSET	-93.9	-5.79999	48.7
							CHANNELS 3  Xrotation Yrotation Zrotation
							JOINT left_elbow
							{
								OFFSET	-291.4	-30.8	15.2
								CHANNELS 3  Xrotation Yrotation Zrotation
								JOINT left_lowarm_twist
								{
									OFFSET	-110.7	-3.89999	13.6
									CHANNELS 3  Xrotation Yrotation Zrotation
									JOINT left_hand
									{
										OFFSET	-110.7	-3.89999	13.6
										CHANNELS 3  Xrotation Yrotation Zrotation
										JOINT left_ee
										{
											OFFSET	-80.8	-5.10001	12.1
											CHANNELS 3  Xrotation Yrotation Zrotation
											End Site
											{
												OFFSET	1	0	0
											}
										}
									}
								}
							}
						}
					}
					JOINT right_clavicle
					{
						OFFSET	43.2	22.4	-70.8
						CHANNELS 3  Xrotation Yrotation Zrotation
						JOINT right_shoulder
						{
							OFFSET	93.9	-5.79999	48.7
							CHANNELS 3  Xrotation Yrotation Zrotation
							JOINT right_elbow
							{
								OFFSET	291.4	-30.8	15.2
								CHANNELS 3  Xrotation Yrotation Zrotation
								JOINT right_lowarm_twist
								{
									OFFSET	110.7	-3.89999	13.6
									CHANNELS 3  Xrotation Yrotation Zrotation
									JOINT right_hand
									{
										OFFSET	110.7	-3.89999	13.6
										CHANNELS 3  Xrotation Yrotation Zrotation
										JOINT right_ee
										{
											OFFSET	80.8	-5.10001	12.1
											CHANNELS 3  Xrotation Yrotation Zrotation
											End Site
											{
												OFFSET	1	0	0
											}
										}
									}
								}
							}
						}
					}
				}
			}
		}
	}
	JOINT left_hip
	{
		OFFSET	-82.8	-127.5	0.300001
		CHANNELS 3  Xrotation Yrotation Zrotation
		JOINT left_knee
		{
			OFFSET	-28.2	-396.7	2.2
			CHANNELS 3  Xrotation Yrotation Zrotation
			JOINT left_ankle
			{
				OFFSET	-11.7	-411.3	35.4
				CHANNELS 3  Xrotation Yrotation Zrotation
				JOINT left_toes
				{
					OFFSET	0	-60	-88.6
					CHANNELS 3  Xrotation Yrotation Zrotation
					JOINT left_foot_ee
					{
						OFFSET	-22.5	-16.5	-42.2
						CHANNELS 3  Xrotation Yrotation Zrotation
						End Site
						{
							OFFSET	1	0	0
						}
					}
				}
			}
		}
	}
	JOINT right_hip
	{
		OFFSET	82.8	-127.5	0.300001
		CHANNELS 3  Xrotation Yrotation Zrotation
		JOINT right_knee
		{
			OFFSET	28.2	-396.7	2.2
			CHANNELS 3  Xrotation Yrotation Zrotation
			JOINT right_ankle
			{
				OFFSET	11.7	-411.3	35.4
				CHANNELS 3  Xrotation Yrotation Zrotation
				JOINT right_toes
				{
					OFFSET	0	-60	-88.6
					CHANNELS 3  Xrotation Yrotation Zrotation
					JOINT right_foot_ee
					{
						OFFSET	22.5	-16.5	-42.2
						CHANNELS 3  Xrotation Yrotation Zrotation
						End Site
						{
							OFFSET	1	0	0
						}
					}
				}
			}
		}
	}
}
MOTION
Frames: 16
Frame Time: 0.02
1126.06 673.135 -1441.25 -12.4629 71.2989 10.6362 2.33029 0.327028 1.05175 2.33087 0.259444 1.07043 2.33569 0.0735443 1.09896 2.33409 0.246171 1.07356 -21.1164 10.1715 0.0588728 -21.7437 19.5845 4.64163 -0.0 0.0 -0.0 -0.0552561 13.8308 1.54013 10.7476 -23.9704 60.0317 2.82943 -54.4833 1.45695 -54.5279 -4.61113 4.89851 0.179625 1.78514 1.94424 -0.0 0.0 -0.0 7.09752 0.966646 -13.7855 -30.4479 8.5155 -66.4675 0.420261 11.7604 -0.043283 60.5889 1.82664 7.16199 -3.32882 -29.1871 6.47838 0.0 0.0 0.0 -16.3304 10.7804 3.73576 2.48101 -0.11009 -0.364751 40.7719 1.14662 -4.93426 -19.4174 0.0 0.0 -0.0 0.0 -0.0 36.1693 6.76443 -3.17058 -2.20998 -0.0846646 -0.328569 -8.22248 18.0433 -1.36879 -27.645 0.0 0.0 0.0 0.0 0.0 
1109.14 674.605 -1445.45 -12.0325 71.2327 9.88528 2.39117 0.287279 1.00937 2.39171 0.222472 1.0256 2.39565 0.0458291 1.04845 2.39418 0.210828 1.02805 -18.3884 10.7858 -1.81158 -19.0051 21.7151 2.6709 -0.0 0.0 -0.0 -0.133682 13.5757 1.38188 7.9593 -25.116 59.8328 2.69127 -53.1175 1.34545 -55.3254 -4.70779 4.93204 0.144576 2.37691 1.95744 -0.0 0.0 -0.0 7.30024 1.031 -14.1917 -29.5968 9.83551 -66.6432 0.42003 11.7541 -0.0432359 61.2117 1.88298 7.21856 -3.34286 -29.0411 6.63919 0.0 0.0 0.0 -16.5973 10.5887 3.86121 -0.0689287 0.00283236 0.0101985 39.9942 -0.0850241 -4.87607 -19.2199 0.0 0.0 -0.0 0.0 -0.0 35.875 6.70111 -3.22634 -3.93781 -0.141984 -0.587536 -9.35432 16.5052 -1.53981 -27.7909 0.0 0.0 0.0 0.0 0.0 
1089.95 675.071 -1453.3 -12.7938 72.214 10.5371 2.42001 0.152445 1.09839 2.42068 0.082247 1.10586 2.42217 -0.105466 1.10389 2.42048 0.0701862 1.10669 -17.602 11.3721 -2.14581 -18.2475 23.0251 2.44827 -0.0 0.0 -0.0 -0.268434 14.1018 1.22557 5.94146 -25.7484 60.0007 2.50298 -51.1052 1.19683 -56.6768 -4.8726 4.98576 0.110566 2.84399 1.92606 -0.0 0.0 -0.0 7.50728 0.965227 -14.6073 -29.1506 10.7953 -67.1779 0.41807 11.7007 -0.0428376 61.8724 1.94343 7.27792 -3.31901 -29.0175 6.52418 0.0 0.0 0.0 -16.6618 10.4422 3.74421 -1.77783 0.0691083 0.264073 39.5795 0.671801 -4.83501 -19.0296 0.0 0.0 -0.0 0.0 -0.0 35.6539 6.74872 -3.02314 -5.4617 -0.186031 -0.81725 -9.98446 17.9541 -1.66545 -28.3575 0.0 0.0 0.0 0.0 0.0 
1068.29 672.279 -1457.3 -15.49 72.9369 12.9998 2.58481 0.0675431 1.14634 2.58554 -0.00553341 1.14831 2.58527 -0.195946 1.13149 2.58349 -0.0148018 1.14823 -15.1232 11.3234 -3.10777 -15.6149 23.4866 0.986526 -0.0 0.0 -0.0 -0.444398 16.0813 1.1897 3.878 -26.0613 60.6112 2.41773 -50.1321 1.13093 -57.5406 -4.97858 5.01805 -0.225382 4.40461 0.360615 -0.0 0.0 -0.0 7.61559 0.925794 -14.8249 -28.6245 11.6358 -67.0714 0.398451 11.1658 -0.0389485 62.8877 2.03765 7.36777 -3.4296 -28.8925 7.19555 0.0 0.0 0.0 -17.0207 11.0866 3.84819 -1.9529 0.0754692 0.290187 40.2157 2.12563 -4.88225 -18.1743 0.0 0.0 -0.0 0.0 -0.0 34.688 6.62307 -3.03322 -8.17307 -0.249233 -1.2285 -0.468604 11.8032 -0.073169 -27.9762 0.0 0.0 0.0 0.0 0.0 
1049.15 676.285 -1463.41 -13.0341 73.0934 10.2359 2.58094 0.219887 1.24834 2.5818 0.140013 1.2598 2.58473 -0.0708923 1.26557 2.58252 0.129854 1.26088 -14.4929 12.4264 -2.94134 -15.0381 25.4924 1.40509 -0.0 0.0 -0.0 -0.476765 15.9948 1.1278 1.5002 -26.4292 60.9433 2.21069 -47.5929 0.974962 -60.6442 -5.36297 5.12078 -0.190178 5.64598 1.11321 -0.0 0.0 -0.0 8.25285 0.845682 -16.1107 -28.2706 12.3883 -67.059 0.374566 10.5118 -0.0344569 65.2133 2.25938 7.56723 -3.73075 -29.1061 8.70031 0.0 0.0 0.0 -16.4145 10.5545 3.11042 -8.08019 0.24739 1.21436 39.1461 -1.14566 -4.81118 -16.9628 0.0 0.0 -0.0 0.0 -0.0 32.9015 6.82935 -2.42427 -7.53504 -0.236113 -1.13147 -0.468464 13.4112 -0.0739411 -35.1413 0.0 0.0 0.0 0.0 0.0 
1021.46 683.832 -1468.48 -11.0952 73.483 7.7152 2.49611 0.240205 1.3539 2.49711 0.153574 1.36644 2.50062 -0.0772243 1.37287 2.49802 0.140544 1.36784 -14.7048 12.7846 -4.08852 -15.3144 26.8567 0.513713 -0.0 0.0 -0.0 -0.811802 18.758 0.973522 -1.58295 -26.4331 61.4624 2.10553 -46.2006 0.898179 -64.9235 -5.90063 5.22789 -0.165724 4.51386 0.799109 -0.0 0.0 -0.0 8.31703 0.774291 -16.2395 -28.4741 14.6351 -66.5727 0.415879 11.6411 -0.0423942 67.7009 2.50536 7.7705 -3.68059 -28.8749 8.56937 0.0 0.0 0.0 -16.2448 11.5358 3.58348 -11.5169 0.30027 1.73898 33.9056 0.141366 -4.31107 -12.9832 0.0 0.0 -0.0 0.0 -0.0 29.5588 6.65289 -2.03425 -8.77967 -0.260703 -1.32087 10.0084 4.23 1.45493 -39.0606 0.0 0.0 0.0 0.0 0.0 
1002.78 682.092 -1472.72 -10.5278 74.3236 6.90578 2.42602 0.32062 1.47984 2.42721 0.225815 1.49724 2.43298 -0.0296556 1.51388 2.42984 0.209778 1.49957 -13.6978 12.4827 -4.78686 -14.19 26.714 -0.518403 -0.0 0.0 -0.0 -1.31022 18.5459 0.192926 -4.67289 -29.3706 61.764 1.96116 -44.167 0.795751 -65.6977 -5.99864 5.24294 -0.257176 6.03793 0.839293 -0.0 0.0 -0.0 8.57687 0.855414 -16.7688 -27.4801 14.235 -66.223 0.444407 12.4156 -0.0483396 68.0475 2.54033 7.79798 -4.02532 -29.0305 10.3534 0.0 0.0 0.0 -16.5357 10.2154 3.24734 -13.2315 0.314864 2.00164 32.8051 -0.285235 -4.20417 -11.2763 0.0 0.0 -0.0 0.0 -0.0 28.5767 5.88293 -1.41954 -9.44522 -0.272161 -1.42236 15.1715 3.84251 2.15727 -40.1158 0.0 0.0 0.0 0.0 0.0 
984.531 686.396 -1475.2 -10.7661 74.7646 6.36805 2.43502 0.371225 1.54848 2.43631 0.271951 1.56896 2.44362 0.0040505 1.59234 2.44017 0.255449 1.57173 -14.1196 12.7499 -5.45644 -14.6742 27.6184 -0.946036 -0.0 0.0 -0.0 -1.62585 20.7262 0.0595871 -6.49494 -28.0198 62.7514 1.87632 -42.9023 0.73731 -68.4575 -6.34933 5.28575 -0.106509 6.55729 2.04008 -0.0 0.0 -0.0 8.95061 1.07322 -17.5371 -25.9953 15.1925 -65.8043 0.478952 13.3473 -0.0560411 70.5297 2.79552 7.9885 -4.1953 -28.9286 11.3523 0.0 0.0 0.0 -15.4351 10.3595 2.84524 -15.8442 0.321976 2.40241 29.8528 -0.433558 -3.89788 -9.95382 0.0 0.0 -0.0 0.0 -0.0 27.2401 4.8059 -0.708351 -10.0167 -0.281059 -1.5096 22.3909 -0.95592 3.03894 -39.9316 0.0 0.0 0.0 0.0 0.0 
969.671 687.173 -1480.98 -11.2074 75.2943 6.51079 2.46624 0.455823 1.65857 2.4677 0.349376 1.6842 2.47782 0.0620373 1.71893 2.47385 0.332692 1.68757 -14.9849 13.4842 -5.50725 -15.707 29.0206 -0.474532 -0.0 0.0 -0.0 -2.10914 22.0035 -0.422371 -7.43703 -28.4939 63.3663 1.73235 -40.6312 0.641396 -70.19 -6.57027 5.30392 0.279743 5.14886 3.99167 -0.0 0.0 -0.0 9.07335 0.41861 -17.7692 -25.2623 17.2138 -65.1865 0.601464 16.5914 -0.087699 72.524 3.0064 8.13348 -4.4074 -28.7632 12.6346 0.0 0.0 0.0 -12.3078 10.9063 1.44136 -21.042 0.281798 3.19864 30.328 1.85313 -3.93377 -8.6755 0.0 0.0 -0.0 0.0 -0.0 26.0005 3.98715 -0.0536697 -11.4963 -0.300047 -1.73583 25.2077 0.112162 3.37802 -40.1616 0.0 0.0 0.0 0.0 0.0 
955.707 685.254 -1491.91 -12.0304 75.9323 7.05946 2.55655 0.448235 1.7583 2.55821 0.33546 1.78324 2.56842 0.0345724 1.81418 2.56397 0.320609 1.78597 -14.1542 13.7083 -4.71092 -14.8103 28.9944 0.124981 -0.0 0.0 -0.0 -2.69158 22.8356 -1.08988 -9.2339 -28.7889 63.6868 1.56818 -37.8384 0.537525 -72.3254 -6.84305 5.31706 0.430955 6.47016 5.51879 -0.0 0.0 -0.0 9.33513 0.315162 -18.3011 -24.3018 17.0999 -65.6564 0.638689 17.5568 -0.098629 75.6687 3.34882 8.34701 -4.76167 -29.0515 14.4082 0.0 0.0 0.0 -12.5319 10.4354 0.145867 -20.8714 0.284263 3.17258 29.1403 0.658312 -3.81337 -7.23611 0.0 0.0 -0.0 0.0 -0.0 25.0259 3.38757 -0.054628 -13.1992 -0.314662 -1.99669 28.7124 1.14682 3.78036 -40.1327 0.0 0.0 0.0 0.0 0.0 
935.581 693.334 -1497.99 -11.9303 77.6051 6.73861 2.58823 0.387089 1.88877 2.59017 0.26614 1.90957 2.59872 -0.0537919 1.92727 2.59362 0.251203 1.91159 -15.6002 12.6265 -4.04207 -16.2717 26.5149 0.727218 -0.0 0.0 -0.0 -2.7909 23.2794 -1.14306 -9.84683 -29.0181 63.7768 1.28677 -32.5131 0.375233 -72.9214 -6.91923 5.3189 0.143801 5.53753 3.25731 -0.0 0.0 -0.0 9.18392 -0.502474 -17.9621 -25.2784 19.7017 -65.2848 0.835819 22.4914 -0.166192 75.607 3.34199 8.343 -5.16746 -29.0831 16.6683 0.0 0.0 0.0 -8.11453 10.9383 -2.34839 -27.032 0.146257 4.10745 28.5823 2.65728 -3.7421 -7.34074 0.0 0.0 -0.0 0.0 -0.0 22.1128 3.71078 0.683796 -12.5455 -0.309969 -1.8965 29.6552 -0.511886 3.86986 -37.5832 0.0 0.0 0.0 0.0 0.0 
922.27 694.161 -1506.6 -11.6248 79.1904 6.44377 2.55404 0.555022 1.97344 2.55611 0.428348 2.00475 2.57083 0.0895145 2.04802 2.56521 0.411773 2.00821 -15.0143 12.9958 -2.57251 -15.6546 26.367 2.096 -0.0 0.0 -0.0 -2.75133 22.5964 -1.21868 -10.7644 -29.2587 64.7122 0.972275 -25.7167 0.221942 -74.7815 -7.15695 5.31951 0.180585 5.02434 3.28851 -0.0 0.0 -0.0 9.06335 -3.05311 -17.6061 -23.9724 22.0315 -64.3435 1.01776 26.7552 -0.242051 77.1912 3.51869 8.44357 -5.47357 -29.2319 18.2984 0.0 0.0 0.0 -4.77728 10.9547 -4.16716 -36.2383 -0.244953 5.46448 28.7311 3.91495 -3.75407 -7.12146 0.0 0.0 -0.0 0.0 -0.0 20.1248 3.509 0.627712 -11.5041 -0.300132 -1.73703 32.1729 -2.28714 4.12401 -36.8128 0.0 0.0 0.0 0.0 0.0 
910.602 693.827 -1513.43 -17.2666 80.608 12.1482 2.84667 0.351446 1.95206 2.84876 0.226543 1.97046 2.85603 -0.0940522 1.9812 2.85062 0.21996 1.9712 -14.6464 13.0179 -1.42425 -15.235 25.7237 3.08485 -0.0 0.0 -0.0 -3.33211 21.7961 -2.19908 -11.1065 -30.5259 65.4335 0.771488 -20.9154 0.1424 -76.1693 -7.33419 5.3149 0.284281 4.28479 3.66877 -0.0 0.0 -0.0 9.33883 -4.60234 -18.0602 -21.9248 22.522 -63.1329 1.15979 29.8774 -0.309445 78.9277 3.71548 8.54817 -5.51878 -29.4673 18.3727 0.0 0.0 0.0 0.387018 10.4314 -6.30988 -41.9157 -0.59312 6.26435 29.1429 6.65951 -3.79584 -6.5775 0.0 0.0 -0.0 0.0 -0.0 18.2635 3.49852 0.639929 -10.8676 -0.292693 -1.63964 31.6359 -1.25545 4.07404 -36.4116 0.0 0.0 0.0 0.0 0.0 
901.378 696.377 -1516.17 -19.4018 82.3164 14.5305 2.86193 0.415873 1.96671 2.86404 0.289909 1.98918 2.87359 -0.0338795 2.0099 2.86806 0.283908 1.99004 -14.0826 11.6405 -0.192769 -14.4857 22.3315 3.61144 -0.0 0.0 -0.0 -3.31613 21.0263 -2.33542 -12.5749 -32.353 66.2955 0.527116 -14.6344 0.0676863 -78.6606 -7.65167 5.29577 0.52507 6.17652 6.0192 -0.0 0.0 -0.0 9.20612 -6.52557 -17.6704 -21.1024 25.1878 -62.4783 1.20931 30.9229 -0.334508 80.8885 3.94137 8.65905 -5.41196 -29.0664 18.074 0.0 0.0 0.0 3.9635 10.1263 -8.62299 -46.4643 -0.928364 6.87838 27.8115 4.66038 -3.65125 -5.95349 0.0 0.0 -0.0 0.0 -0.0 17.1135 3.54976 0.44834 -10.5679 -0.288816 -1.59382 33.5426 0.048419 4.27643 -34.9548 0.0 0.0 0.0 0.0 0.0 
890.884 694.607 -1523.14 -31.3924 84.9572 27.0309 2.87149 0.207884 1.91237 2.87352 0.0857967 1.92171 2.87584 -0.224516 1.91049 2.87075 0.07997 1.92197 -14.9087 11.7074 0.305196 -15.3547 22.2078 4.27571 -0.0 0.0 -0.0 -3.57342 21.1588 -2.68047 -13.8948 -31.7078 66.089 0.490438 -13.6555 0.0587226 -79.3345 -7.73735 5.28821 0.797056 4.33644 7.08275 -0.0 0.0 -0.0 9.21765 -8.06199 -17.5738 -20.0782 26.1748 -61.8246 1.32853 33.3479 -0.397937 80.2294 3.86502 8.62265 -5.75054 -29.2544 19.8763 0.0 0.0 0.0 6.22979 10.9738 -10.1722 -46.7196 -0.948622 6.91204 28.2885 7.06837 -3.70268 -6.41965 0.0 0.0 -0.0 0.0 -0.0 16.0673 3.4623 0.195212 -10.1595 -0.283147 -1.53142 34.0517 -0.844041 4.32073 -34.679 0.0 0.0 0.0 0.0 0.0 
878.45 693.428 -1529.32 -39.9243 85.3611 35.8401 3.02933 0.192119 1.88793 3.03131 0.0716177 1.89632 3.03305 -0.22926 1.88378 3.0281 0.0710698 1.89634 -14.2926 10.5943 0.0836523 -14.6271 20.1782 3.5492 -0.0 0.0 -0.0 -3.69346 21.0799 -2.87158 -14.5124 -32.6097 66.2864 0.321648 -9.05331 0.0254649 -80.4783 -7.88249 5.27305 0.727026 3.70328 6.36457 -0.0 0.0 -0.0 9.35803 -9.59884 -17.7023 -18.1081 27.1438 -61.8677 1.43008 35.3124 -0.455213 79.2238 3.74935 8.56541 -5.27364 -28.0271 18.0719 0.0 0.0 0.0 7.86661 12.0943 -10.0536 -46.9742 -0.968975 6.94553 29.7674 8.10637 -3.86536 -8.51965 0.0 0.0 -0.0 0.0 -0.0 14.427 1.97895 -1.08653 -7.90627 -0.243878 -1.18791 36.7265 -2.20995 4.56989 -33.8141 0.0 0.0 0.0 0.0 0.0 
